<?xml version="1.0" encoding="UTF-8"?>
<svg width="100px" height="100px" viewBox="0 0 100 100" version="1.1" xmlns="http://www.w3.org/2000/svg" xmlns:xlink="http://www.w3.org/1999/xlink">
    <!-- Generator: Sketch 61 (89581) - https://sketch.com -->
    <title>Group 26</title>
    <desc>Created with Sketch.</desc>
    <g id="Website" stroke="none" stroke-width="1" fill="none" fill-rule="evenodd">
        <g id="7.01-Email-Digest" transform="translate(-438.000000, -1220.000000)">
            <g id="browser">
                <path d="M8,0 L1442,0 C1446.41828,-8.11624501e-16 1450,3.581722 1450,8 L1450,1867 C1450,1871.41828 1446.41828,1875 1442,1875 L8,1875 C3.581722,1875 5.41083001e-16,1871.41828 0,1867 L0,8 C-2.31743984e-15,3.581722 3.581722,8.11624501e-16 8,0 Z" id="window" fill="#FFFFFF"></path>
                <g id="Group-6" transform="translate(299.000000, 230.000000)">
                    <rect id="Rectangle" fill="#FFFFFF" x="0" y="0" width="867" height="1645"></rect>
                    <g id="Group-5" transform="translate(109.000000, 686.000000)">
                        <g id="Group-4" transform="translate(0.000000, 237.000000)">
                            <g id="Group-3" transform="translate(0.000000, 39.000000)">
                                <path d="M8,0 L642,0 C646.418278,-8.11624501e-16 650,3.581722 650,8 L650,148 C650,152.418278 646.418278,156 642,156 L8,156 C3.581722,156 5.41083001e-16,152.418278 0,148 L0,8 C-5.41083001e-16,3.581722 3.581722,8.11624501e-16 8,0 Z" id="Rectangle" fill="#F7F8FA"></path>
                                <g id="Group-26" transform="translate(30.000000, 28.000000)">
                                    <path d="M97.4513449,36.4544873 C104.209433,61.7894101 99.5776767,87.6325734 58.2217274,98.7636874 C16.865778,109.894801 -23.9686054,42.9983016 16.9655444,12.9658125 C57.8996942,-17.0666766 90.6932568,11.1195646 97.4513449,36.4544873 Z" id="Path" fill="#FFFFFF"></path>
                                    <text id="68" x="<%=x%>" y="50%" alignment-baseline="middle" text-anchor="middle"  font-size="34px" font-family="Helvetica" font-weight="normal" fill="#1C1E21"><%= queryText %>
                                        <!-- <tspan x="28.6988252"  font-size="32px" y="60%"><%= queryText %></tspan> -->
                                    </text>
                                </g>
                            </g>
                        </g>
                    </g>
                </g>
            </g>
        </g>
    </g>
</svg>